<svg width="232" height="93" viewBox="0 0 232 93" fill="none" xmlns="http://www.w3.org/2000/svg">
<path d="M36.164 67.984C36.372 68.512 36.612 68.896 36.884 69.136C37.156 69.376 37.42 69.504 37.676 69.52V70C36.716 69.952 35.5 69.928 34.028 69.928C32.396 69.928 31.18 69.952 30.38 70V69.52C30.988 69.488 31.42 69.416 31.676 69.304C31.932 69.176 32.06 68.96 32.06 68.656C32.06 68.368 31.964 67.984 31.772 67.504L30.332 63.568H25.1L24.476 65.224C24.028 66.376 23.804 67.264 23.804 67.888C23.804 68.48 23.98 68.896 24.332 69.136C24.7 69.36 25.236 69.488 25.94 69.52V70C24.852 69.952 23.86 69.928 22.964 69.928C22.228 69.928 21.62 69.952 21.14 70V69.52C21.924 69.376 22.612 68.536 23.204 67L28.676 52.96C28.852 52.976 29.132 52.984 29.516 52.984C29.9 52.984 30.172 52.976 30.332 52.96L36.164 67.984ZM30.164 63.088L27.788 56.608L25.292 63.088H30.164ZM53.8518 68.992C53.4678 69.44 53.0358 69.776 52.5558 70C52.0758 70.224 51.4758 70.336 50.7558 70.336C49.8438 70.336 49.1398 70.16 48.6438 69.808C48.1478 69.456 47.8278 68.984 47.6838 68.392L46.9878 65.56C46.8118 64.664 46.5398 64.072 46.1718 63.784C45.8198 63.48 45.2918 63.328 44.5878 63.328H43.7958V67.456C43.7958 68.064 43.8358 68.504 43.9158 68.776C44.0118 69.048 44.1798 69.232 44.4198 69.328C44.6758 69.424 45.0678 69.488 45.5958 69.52V70C44.6838 69.952 43.3798 69.928 41.6838 69.928C40.1958 69.928 39.0758 69.952 38.3238 70V69.52C38.8678 69.488 39.2598 69.424 39.4998 69.328C39.7398 69.232 39.8998 69.048 39.9798 68.776C40.0758 68.504 40.1238 68.064 40.1238 67.456V57.952C40.1238 57.344 40.0758 56.904 39.9798 56.632C39.8998 56.36 39.7398 56.176 39.4998 56.08C39.2598 55.984 38.8678 55.92 38.3238 55.888V55.408C39.0758 55.456 40.1478 55.48 41.5398 55.48L44.2758 55.456C44.5958 55.44 44.9558 55.432 45.3558 55.432C47.4998 55.432 49.0998 55.76 50.1558 56.416C51.2278 57.056 51.7638 57.952 51.7638 59.104C51.7638 60.096 51.3398 60.968 50.4918 61.72C49.6438 62.472 48.2278 62.952 46.2438 63.16C46.4678 63.16 46.6998 63.184 46.9398 63.232C48.0918 63.36 48.9958 63.616 49.6518 64C50.3238 64.384 50.7638 64.992 50.9718 65.824L51.4758 67.96C51.5878 68.408 51.7238 68.728 51.8838 68.92C52.0438 69.112 52.2438 69.208 52.4838 69.208C52.8198 69.208 53.1638 69.032 53.5158 68.68L53.8518 68.992ZM45.0438 55.888C44.6918 55.888 44.4278 55.944 44.2518 56.056C44.0758 56.168 43.9558 56.368 43.8918 56.656C43.8278 56.944 43.7958 57.376 43.7958 57.952V62.848H44.8278C46.0118 62.848 46.8198 62.544 47.2518 61.936C47.6998 61.328 47.9238 60.472 47.9238 59.368C47.9238 58.2 47.6998 57.328 47.2518 56.752C46.8198 56.176 46.0838 55.888 45.0438 55.888ZM68.3493 55.408C68.2373 56.624 68.1813 57.712 68.1813 58.672C68.1813 59.568 68.2053 60.272 68.2533 60.784H67.7013C67.4773 59.568 67.2053 58.616 66.8853 57.928C66.5813 57.24 66.1813 56.744 65.6853 56.44C65.2053 56.12 64.5813 55.96 63.8133 55.96H63.0693V67.216C63.0693 67.888 63.1333 68.376 63.2613 68.68C63.3893 68.984 63.6133 69.192 63.9333 69.304C64.2533 69.416 64.7733 69.488 65.4933 69.52V70C64.6293 69.952 63.1893 69.928 61.1733 69.928C59.1413 69.928 57.7413 69.952 56.9733 70V69.52C57.6933 69.488 58.2133 69.416 58.5333 69.304C58.8533 69.192 59.0773 68.984 59.2053 68.68C59.3333 68.376 59.3973 67.888 59.3973 67.216V55.96H58.6533C57.8853 55.96 57.2533 56.12 56.7573 56.44C56.2773 56.744 55.8773 57.24 55.5573 57.928C55.2533 58.616 54.9893 59.568 54.7653 60.784H54.2133C54.2613 60.272 54.2853 59.568 54.2853 58.672C54.2853 57.712 54.2293 56.624 54.1173 55.408C55.5093 55.456 57.8613 55.48 61.1733 55.48C64.5493 55.48 66.9413 55.456 68.3493 55.408ZM82.0633 55.408C81.9513 56.48 81.8953 57.44 81.8953 58.288C81.8953 58.912 81.9193 59.408 81.9673 59.776H81.4153C81.1753 58.4 80.7593 57.424 80.1673 56.848C79.5753 56.256 78.7593 55.96 77.7193 55.96H76.8313C76.4153 55.96 76.1033 56 75.8953 56.08C75.6873 56.144 75.5353 56.288 75.4393 56.512C75.3593 56.72 75.3193 57.056 75.3193 57.52V62.416H76.4473C77.1833 62.416 77.7353 62.16 78.1033 61.648C78.4873 61.12 78.7433 60.512 78.8713 59.824H79.4233C79.3753 60.368 79.3513 60.992 79.3513 61.696V62.656C79.3513 63.376 79.3993 64.32 79.4953 65.488H78.9433C78.8313 64.736 78.5753 64.12 78.1753 63.64C77.7913 63.144 77.2153 62.896 76.4473 62.896H75.3193V67.312C75.3193 67.92 75.3913 68.376 75.5353 68.68C75.6953 68.984 75.9513 69.192 76.3033 69.304C76.6553 69.416 77.1833 69.488 77.8873 69.52V70C76.9113 69.952 75.4953 69.928 73.6393 69.928C71.9273 69.928 70.6633 69.952 69.8473 70V69.52C70.3913 69.488 70.7833 69.424 71.0233 69.328C71.2633 69.232 71.4233 69.048 71.5033 68.776C71.5993 68.504 71.6473 68.064 71.6473 67.456V57.952C71.6473 57.344 71.5993 56.904 71.5033 56.632C71.4233 56.36 71.2553 56.176 70.9993 56.08C70.7593 55.984 70.3753 55.92 69.8473 55.888V55.408C71.5113 55.456 73.9913 55.48 77.2873 55.48C79.5273 55.48 81.1193 55.456 82.0633 55.408ZM98.321 55.888C97.761 55.968 97.345 56.104 97.073 56.296C96.801 56.488 96.617 56.792 96.521 57.208C96.425 57.624 96.377 58.24 96.377 59.056V63.496C96.377 64.6 96.297 65.544 96.137 66.328C95.993 67.096 95.745 67.768 95.393 68.344C95.009 68.952 94.433 69.44 93.665 69.808C92.913 70.16 92.057 70.336 91.097 70.336C89.289 70.336 87.881 69.984 86.873 69.28C86.313 68.864 85.889 68.416 85.601 67.936C85.313 67.456 85.105 66.88 84.977 66.208C84.865 65.52 84.809 64.64 84.809 63.568V57.952C84.809 57.344 84.761 56.904 84.665 56.632C84.585 56.36 84.417 56.176 84.161 56.08C83.921 55.984 83.537 55.92 83.009 55.888V55.408C83.809 55.456 85.025 55.48 86.657 55.48C88.209 55.48 89.417 55.456 90.281 55.408V55.888C89.737 55.92 89.345 55.984 89.105 56.08C88.865 56.176 88.697 56.36 88.601 56.632C88.521 56.904 88.481 57.344 88.481 57.952V63.976C88.481 65.128 88.553 66.08 88.697 66.832C88.857 67.584 89.185 68.192 89.681 68.656C90.177 69.12 90.913 69.352 91.889 69.352C93.345 69.352 94.361 68.864 94.937 67.888C95.529 66.896 95.825 65.52 95.825 63.76V59.344C95.825 58.416 95.769 57.728 95.657 57.28C95.545 56.832 95.329 56.512 95.009 56.32C94.689 56.112 94.185 55.968 93.497 55.888V55.408C94.121 55.456 94.985 55.48 96.089 55.48C97.049 55.48 97.793 55.456 98.321 55.408V55.888ZM106.697 55.888C106.153 55.92 105.761 55.984 105.521 56.08C105.281 56.176 105.113 56.36 105.017 56.632C104.937 56.904 104.897 57.344 104.897 57.952V67.744C104.897 68.24 104.937 68.608 105.017 68.848C105.113 69.088 105.265 69.248 105.473 69.328C105.681 69.408 105.993 69.448 106.409 69.448H107.345C108.401 69.448 109.289 69.072 110.009 68.32C110.729 67.552 111.217 66.32 111.473 64.624H112.025C111.977 65.152 111.953 65.808 111.953 66.592C111.953 67.584 112.009 68.72 112.121 70C111.081 69.952 109.329 69.928 106.865 69.928C103.569 69.928 101.089 69.952 99.4254 70V69.52C99.9694 69.488 100.361 69.424 100.601 69.328C100.841 69.232 101.001 69.048 101.081 68.776C101.177 68.504 101.225 68.064 101.225 67.456V57.952C101.225 57.344 101.177 56.904 101.081 56.632C101.001 56.36 100.833 56.176 100.577 56.08C100.337 55.984 99.9534 55.92 99.4254 55.888V55.408C100.241 55.456 101.505 55.48 103.217 55.48C104.721 55.48 105.881 55.456 106.697 55.408V55.888ZM127.188 61.072C129.268 61.232 130.796 61.712 131.772 62.512C132.748 63.312 133.236 64.256 133.236 65.344C133.236 66.832 132.652 67.984 131.484 68.8C130.316 69.6 128.692 70 126.612 70C126.148 70 125.756 69.992 125.436 69.976C124.38 69.944 123.348 69.928 122.34 69.928C120.692 69.928 119.46 69.952 118.644 70V69.52C119.172 69.488 119.556 69.424 119.796 69.328C120.052 69.232 120.22 69.048 120.3 68.776C120.396 68.504 120.444 68.064 120.444 67.456V55.552C120.444 54.944 120.396 54.504 120.3 54.232C120.22 53.96 120.052 53.776 119.796 53.68C119.556 53.584 119.172 53.52 118.644 53.488V53.008C119.46 53.056 120.676 53.08 122.292 53.08L124.956 53.056C125.276 53.04 125.644 53.032 126.06 53.032C127.98 53.032 129.444 53.376 130.452 54.064C131.476 54.752 131.988 55.664 131.988 56.8C131.988 57.728 131.58 58.592 130.764 59.392C129.964 60.192 128.772 60.736 127.188 61.024V61.072ZM125.748 53.488C125.316 53.488 124.996 53.544 124.788 53.656C124.596 53.768 124.46 53.968 124.38 54.256C124.3 54.544 124.26 54.976 124.26 55.552V60.976H125.292C126.332 60.976 127.06 60.624 127.476 59.92C127.892 59.2 128.1 58.248 128.1 57.064C128.1 55.864 127.908 54.968 127.524 54.376C127.156 53.784 126.564 53.488 125.748 53.488ZM125.916 69.448C128.14 69.448 129.252 68.048 129.252 65.248C129.252 63.984 128.932 63.024 128.292 62.368C127.652 61.712 126.644 61.384 125.268 61.384H124.26V67.456C124.26 68.032 124.3 68.456 124.38 68.728C124.46 69 124.612 69.192 124.836 69.304C125.076 69.4 125.436 69.448 125.916 69.448ZM147.447 67.984C147.911 68.976 148.415 69.488 148.959 69.52V70C148.191 69.952 147.143 69.928 145.815 69.928C144.103 69.928 142.839 69.952 142.023 70V69.52C142.551 69.488 142.943 69.408 143.199 69.28C143.455 69.136 143.583 68.904 143.583 68.584C143.583 68.296 143.479 67.936 143.271 67.504L142.071 64.768H137.031L136.743 65.416C136.295 66.472 136.071 67.296 136.071 67.888C136.071 68.432 136.247 68.832 136.599 69.088C136.951 69.344 137.471 69.488 138.159 69.52V70C137.247 69.952 136.327 69.928 135.399 69.928C134.535 69.928 133.887 69.952 133.455 70V69.52C133.839 69.44 134.191 69.2 134.511 68.8C134.847 68.384 135.199 67.768 135.567 66.952L140.631 55.36C140.759 55.376 140.943 55.384 141.183 55.384C141.439 55.384 141.623 55.376 141.735 55.36L147.447 67.984ZM141.855 64.288L139.551 59.032L137.247 64.288H141.855ZM164.27 68.056C164.574 68.456 164.838 68.76 165.062 68.968C165.286 69.176 165.566 69.36 165.902 69.52V70C164.798 69.952 163.574 69.928 162.23 69.928C161.094 69.928 160.006 69.952 158.966 70V69.52C159.478 69.504 159.838 69.464 160.046 69.4C160.254 69.32 160.358 69.208 160.358 69.064C160.358 68.92 160.27 68.712 160.094 68.44L156.95 63.928C156.678 63.544 156.406 63.256 156.134 63.064C155.862 62.856 155.502 62.744 155.054 62.728V67.456C155.054 68.064 155.094 68.504 155.174 68.776C155.27 69.048 155.438 69.232 155.678 69.328C155.918 69.424 156.31 69.488 156.854 69.52V70C156.038 69.952 154.854 69.928 153.302 69.928C151.638 69.928 150.398 69.952 149.582 70V69.52C150.126 69.488 150.518 69.424 150.758 69.328C150.998 69.232 151.158 69.048 151.238 68.776C151.334 68.504 151.382 68.064 151.382 67.456V57.952C151.382 57.344 151.334 56.904 151.238 56.632C151.158 56.36 150.99 56.176 150.734 56.08C150.494 55.984 150.11 55.92 149.582 55.888V55.408C150.398 55.456 151.638 55.48 153.302 55.48C154.854 55.48 156.038 55.456 156.854 55.408V55.888C156.31 55.92 155.918 55.984 155.678 56.08C155.438 56.176 155.27 56.36 155.174 56.632C155.094 56.904 155.054 57.344 155.054 57.952V62.248C155.742 62.184 156.374 62.008 156.95 61.72C157.526 61.432 158.142 60.976 158.798 60.352L160.262 58.864C160.886 58.256 161.198 57.704 161.198 57.208C161.198 56.824 161.03 56.512 160.694 56.272C160.358 56.032 159.926 55.896 159.398 55.864V55.408C160.55 55.456 161.782 55.48 163.094 55.48C163.942 55.48 164.654 55.456 165.23 55.408V55.864C164.67 55.992 164.134 56.216 163.622 56.536C163.11 56.84 162.558 57.272 161.966 57.832L159.014 60.736L164.27 68.056ZM179.196 66.88C179.196 67.792 179.252 68.832 179.364 70C178.324 69.952 176.572 69.928 174.108 69.928C170.812 69.928 168.332 69.952 166.668 70V69.52C167.212 69.488 167.604 69.424 167.844 69.328C168.084 69.232 168.244 69.048 168.324 68.776C168.42 68.504 168.468 68.064 168.468 67.456V57.952C168.468 57.344 168.42 56.904 168.324 56.632C168.244 56.36 168.076 56.176 167.82 56.08C167.58 55.984 167.196 55.92 166.668 55.888V55.408C168.332 55.456 170.812 55.48 174.108 55.48C176.348 55.48 177.94 55.456 178.884 55.408C178.772 56.48 178.716 57.44 178.716 58.288C178.716 58.912 178.74 59.408 178.788 59.776H178.236C177.996 58.4 177.58 57.424 176.988 56.848C176.396 56.256 175.58 55.96 174.54 55.96H173.652C173.236 55.96 172.924 56 172.716 56.08C172.508 56.144 172.356 56.288 172.26 56.512C172.18 56.72 172.14 57.056 172.14 57.52V62.416H173.268C174.004 62.416 174.556 62.16 174.924 61.648C175.308 61.12 175.564 60.512 175.692 59.824H176.244C176.196 60.368 176.172 60.992 176.172 61.696V62.656C176.172 63.376 176.22 64.32 176.316 65.488H175.764C175.652 64.736 175.396 64.12 174.996 63.64C174.612 63.144 174.036 62.896 173.268 62.896H172.14V67.888C172.14 68.352 172.18 68.696 172.26 68.92C172.356 69.128 172.508 69.272 172.716 69.352C172.924 69.416 173.236 69.448 173.652 69.448H174.684C175.82 69.448 176.708 69.12 177.348 68.464C178.004 67.808 178.46 66.704 178.716 65.152H179.268C179.22 65.6 179.196 66.176 179.196 66.88ZM196.821 68.992C196.437 69.44 196.005 69.776 195.525 70C195.045 70.224 194.445 70.336 193.725 70.336C192.813 70.336 192.109 70.16 191.613 69.808C191.117 69.456 190.797 68.984 190.653 68.392L189.957 65.56C189.781 64.664 189.509 64.072 189.141 63.784C188.789 63.48 188.261 63.328 187.557 63.328H186.765V67.456C186.765 68.064 186.805 68.504 186.885 68.776C186.981 69.048 187.149 69.232 187.389 69.328C187.645 69.424 188.037 69.488 188.565 69.52V70C187.653 69.952 186.349 69.928 184.653 69.928C183.165 69.928 182.045 69.952 181.293 70V69.52C181.837 69.488 182.229 69.424 182.469 69.328C182.709 69.232 182.869 69.048 182.949 68.776C183.045 68.504 183.093 68.064 183.093 67.456V57.952C183.093 57.344 183.045 56.904 182.949 56.632C182.869 56.36 182.709 56.176 182.469 56.08C182.229 55.984 181.837 55.92 181.293 55.888V55.408C182.045 55.456 183.117 55.48 184.509 55.48L187.245 55.456C187.565 55.44 187.925 55.432 188.325 55.432C190.469 55.432 192.069 55.76 193.125 56.416C194.197 57.056 194.733 57.952 194.733 59.104C194.733 60.096 194.309 60.968 193.461 61.72C192.613 62.472 191.197 62.952 189.213 63.16C189.437 63.16 189.669 63.184 189.909 63.232C191.061 63.36 191.965 63.616 192.621 64C193.293 64.384 193.733 64.992 193.941 65.824L194.445 67.96C194.557 68.408 194.693 68.728 194.853 68.92C195.013 69.112 195.213 69.208 195.453 69.208C195.789 69.208 196.133 69.032 196.485 68.68L196.821 68.992ZM188.013 55.888C187.661 55.888 187.397 55.944 187.221 56.056C187.045 56.168 186.925 56.368 186.861 56.656C186.797 56.944 186.765 57.376 186.765 57.952V62.848H187.797C188.981 62.848 189.789 62.544 190.221 61.936C190.669 61.328 190.893 60.472 190.893 59.368C190.893 58.2 190.669 57.328 190.221 56.752C189.789 56.176 189.053 55.888 188.013 55.888ZM208.493 55.48C209.293 55.48 209.909 55.456 210.341 55.408V55.888C210.021 56.032 209.693 56.304 209.357 56.704C209.037 57.088 208.653 57.672 208.205 58.456L205.469 63.496V67.312C205.469 67.952 205.525 68.424 205.637 68.728C205.749 69.016 205.957 69.216 206.261 69.328C206.565 69.424 207.045 69.488 207.701 69.52V70C206.869 69.952 205.493 69.928 203.573 69.928C201.621 69.928 200.285 69.952 199.565 70V69.52C200.221 69.488 200.701 69.424 201.005 69.328C201.309 69.216 201.517 69.016 201.629 68.728C201.741 68.424 201.797 67.952 201.797 67.312V64.72L197.501 57.256C197.229 56.792 196.989 56.464 196.781 56.272C196.573 56.08 196.349 55.96 196.109 55.912V55.408C197.101 55.488 198.045 55.528 198.941 55.528C200.205 55.528 201.613 55.488 203.165 55.408V55.912C202.685 55.912 202.309 55.96 202.037 56.056C201.765 56.136 201.629 56.304 201.629 56.56C201.629 56.768 201.717 57.016 201.893 57.304L205.157 62.992L206.693 60.184C207.301 59.064 207.605 58.144 207.605 57.424C207.605 56.448 207.005 55.936 205.805 55.888V55.408C206.781 55.456 207.677 55.48 208.493 55.48Z" fill="white"/>
<path d="M60.7215 86.336C60.8175 86.336 60.9015 86.375 60.9735 86.453L61.6665 87.2C61.1385 87.812 60.4965 88.289 59.7405 88.631C58.9905 88.973 58.0815 89.144 57.0135 89.144C56.0895 89.144 55.2495 88.985 54.4935 88.667C53.7375 88.343 53.0925 87.893 52.5585 87.317C52.0245 86.735 51.6105 86.039 51.3165 85.229C51.0225 84.419 50.8755 83.528 50.8755 82.556C50.8755 81.584 51.0285 80.693 51.3345 79.883C51.6405 79.073 52.0695 78.377 52.6215 77.795C53.1795 77.213 53.8455 76.763 54.6195 76.445C55.3935 76.121 56.2485 75.959 57.1845 75.959C58.1025 75.959 58.9125 76.106 59.6145 76.4C60.3165 76.694 60.9345 77.093 61.4685 77.597L60.8925 78.398C60.8565 78.458 60.8085 78.509 60.7485 78.551C60.6945 78.587 60.6195 78.605 60.5235 78.605C60.4155 78.605 60.2835 78.548 60.1275 78.434C59.9715 78.314 59.7675 78.182 59.5155 78.038C59.2635 77.894 58.9485 77.765 58.5705 77.651C58.1925 77.531 57.7275 77.471 57.1755 77.471C56.5095 77.471 55.9005 77.588 55.3485 77.822C54.7965 78.05 54.3195 78.383 53.9175 78.821C53.5215 79.259 53.2125 79.793 52.9905 80.423C52.7685 81.053 52.6575 81.764 52.6575 82.556C52.6575 83.36 52.7715 84.077 52.9995 84.707C53.2335 85.337 53.5485 85.871 53.9445 86.309C54.3465 86.741 54.8175 87.071 55.3575 87.299C55.9035 87.527 56.4915 87.641 57.1215 87.641C57.5055 87.641 57.8505 87.62 58.1565 87.578C58.4685 87.53 58.7535 87.458 59.0115 87.362C59.2755 87.266 59.5185 87.146 59.7405 87.002C59.9685 86.852 60.1935 86.675 60.4155 86.471C60.5175 86.381 60.6195 86.336 60.7215 86.336ZM68.2539 84.896C67.5159 84.92 66.8859 84.98 66.3639 85.076C65.8479 85.166 65.4249 85.286 65.0949 85.436C64.7709 85.586 64.5339 85.763 64.3839 85.967C64.2399 86.171 64.1679 86.399 64.1679 86.651C64.1679 86.891 64.2069 87.098 64.2849 87.272C64.3629 87.446 64.4679 87.59 64.5999 87.704C64.7379 87.812 64.8969 87.893 65.0769 87.947C65.2629 87.995 65.4609 88.019 65.6709 88.019C65.9529 88.019 66.2109 87.992 66.4449 87.938C66.6789 87.878 66.8979 87.794 67.1019 87.686C67.3119 87.578 67.5099 87.449 67.6959 87.299C67.8879 87.149 68.0739 86.978 68.2539 86.786V84.896ZM63.0789 81.17C63.5829 80.684 64.1259 80.321 64.7079 80.081C65.2899 79.841 65.9349 79.721 66.6429 79.721C67.1529 79.721 67.6059 79.805 68.0019 79.973C68.3979 80.141 68.7309 80.375 69.0009 80.675C69.2709 80.975 69.4749 81.338 69.6129 81.764C69.7509 82.19 69.8199 82.658 69.8199 83.168V89H69.1089C68.9529 89 68.8329 88.976 68.7489 88.928C68.6649 88.874 68.5989 88.772 68.5509 88.622L68.3709 87.758C68.1309 87.98 67.8969 88.178 67.6689 88.352C67.4409 88.52 67.2009 88.664 66.9489 88.784C66.6969 88.898 66.4269 88.985 66.1389 89.045C65.8569 89.111 65.5419 89.144 65.1939 89.144C64.8399 89.144 64.5069 89.096 64.1949 89C63.8829 88.898 63.6099 88.748 63.3759 88.55C63.1479 88.352 62.9649 88.103 62.8269 87.803C62.6949 87.497 62.6289 87.137 62.6289 86.723C62.6289 86.363 62.7279 86.018 62.9259 85.688C63.1239 85.352 63.4449 85.055 63.8889 84.797C64.3329 84.539 64.9119 84.329 65.6259 84.167C66.3399 83.999 67.2159 83.903 68.2539 83.879V83.168C68.2539 82.46 68.1009 81.926 67.7949 81.566C67.4889 81.2 67.0419 81.017 66.4539 81.017C66.0579 81.017 65.7249 81.068 65.4549 81.17C65.1909 81.266 64.9599 81.377 64.7619 81.503C64.5699 81.623 64.4019 81.734 64.2579 81.836C64.1199 81.932 63.9819 81.98 63.8439 81.98C63.7359 81.98 63.6429 81.953 63.5649 81.899C63.4869 81.839 63.4209 81.767 63.3669 81.683L63.0789 81.17ZM73.8712 75.743V83.546H74.2852C74.4052 83.546 74.5042 83.531 74.5822 83.501C74.6662 83.465 74.7532 83.396 74.8432 83.294L77.7232 80.207C77.8072 80.105 77.8942 80.027 77.9842 79.973C78.0802 79.913 78.2062 79.883 78.3622 79.883H79.8112L76.4542 83.456C76.2922 83.66 76.1182 83.819 75.9322 83.933C76.0402 84.005 76.1362 84.089 76.2202 84.185C76.3102 84.275 76.3942 84.38 76.4722 84.5L80.0362 89H78.6052C78.4672 89 78.3472 88.979 78.2452 88.937C78.1492 88.889 78.0652 88.805 77.9932 88.685L74.9962 84.95C74.9062 84.824 74.8162 84.743 74.7262 84.707C74.6422 84.665 74.5102 84.644 74.3302 84.644H73.8712V89H72.2602V75.743H73.8712ZM86.9931 83.447C86.9931 83.075 86.9391 82.736 86.8311 82.43C86.7291 82.118 86.5761 81.851 86.3721 81.629C86.1741 81.401 85.9311 81.227 85.6431 81.107C85.3551 80.981 85.0281 80.918 84.6621 80.918C83.8941 80.918 83.2851 81.143 82.8351 81.593C82.3911 82.037 82.1151 82.655 82.0071 83.447H86.9931ZM88.2891 87.722C88.0911 87.962 87.8541 88.172 87.5781 88.352C87.3021 88.526 87.0051 88.67 86.6871 88.784C86.3751 88.898 86.0511 88.982 85.7151 89.036C85.3791 89.096 85.0461 89.126 84.7161 89.126C84.0861 89.126 83.5041 89.021 82.9701 88.811C82.4421 88.595 81.9831 88.283 81.5931 87.875C81.2091 87.461 80.9091 86.951 80.6931 86.345C80.4771 85.739 80.3691 85.043 80.3691 84.257C80.3691 83.621 80.4651 83.027 80.6571 82.475C80.8551 81.923 81.1371 81.446 81.5031 81.044C81.8691 80.636 82.3161 80.318 82.8441 80.09C83.3721 79.856 83.9661 79.739 84.6261 79.739C85.1721 79.739 85.6761 79.832 86.1381 80.018C86.6061 80.198 87.0081 80.462 87.3441 80.81C87.6861 81.152 87.9531 81.578 88.1451 82.088C88.3371 82.592 88.4331 83.168 88.4331 83.816C88.4331 84.068 88.4061 84.236 88.3521 84.32C88.2981 84.404 88.1961 84.446 88.0461 84.446H81.9531C81.9711 85.022 82.0491 85.523 82.1871 85.949C82.3311 86.375 82.5291 86.732 82.7811 87.02C83.0331 87.302 83.3331 87.515 83.6811 87.659C84.0291 87.797 84.4191 87.866 84.8511 87.866C85.2531 87.866 85.5981 87.821 85.8861 87.731C86.1801 87.635 86.4321 87.533 86.6421 87.425C86.8521 87.317 87.0261 87.218 87.1641 87.128C87.3081 87.032 87.4311 86.984 87.5331 86.984C87.6651 86.984 87.7671 87.035 87.8391 87.137L88.2891 87.722ZM95.7108 81.386C95.6388 81.518 95.5278 81.584 95.3778 81.584C95.2878 81.584 95.1858 81.551 95.0718 81.485C94.9578 81.419 94.8168 81.347 94.6488 81.269C94.4868 81.185 94.2918 81.11 94.0638 81.044C93.8358 80.972 93.5658 80.936 93.2538 80.936C92.9838 80.936 92.7408 80.972 92.5248 81.044C92.3088 81.11 92.1228 81.203 91.9668 81.323C91.8168 81.443 91.6998 81.584 91.6158 81.746C91.5378 81.902 91.4988 82.073 91.4988 82.259C91.4988 82.493 91.5648 82.688 91.6968 82.844C91.8348 83 92.0148 83.135 92.2368 83.249C92.4588 83.363 92.7108 83.465 92.9928 83.555C93.2748 83.639 93.5628 83.732 93.8568 83.834C94.1568 83.93 94.4478 84.038 94.7298 84.158C95.0118 84.278 95.2638 84.428 95.4858 84.608C95.7078 84.788 95.8848 85.01 96.0168 85.274C96.1548 85.532 96.2238 85.844 96.2238 86.21C96.2238 86.63 96.1488 87.02 95.9988 87.38C95.8488 87.734 95.6268 88.043 95.3328 88.307C95.0388 88.565 94.6788 88.769 94.2528 88.919C93.8268 89.069 93.3348 89.144 92.7768 89.144C92.1408 89.144 91.5648 89.042 91.0488 88.838C90.5328 88.628 90.0948 88.361 89.7348 88.037L90.1128 87.425C90.1608 87.347 90.2178 87.287 90.2838 87.245C90.3498 87.203 90.4338 87.182 90.5358 87.182C90.6438 87.182 90.7578 87.224 90.8778 87.308C90.9978 87.392 91.1418 87.485 91.3098 87.587C91.4838 87.689 91.6938 87.782 91.9398 87.866C92.1858 87.95 92.4918 87.992 92.8578 87.992C93.1698 87.992 93.4428 87.953 93.6768 87.875C93.9108 87.791 94.1058 87.68 94.2618 87.542C94.4178 87.404 94.5318 87.245 94.6038 87.065C94.6818 86.885 94.7208 86.693 94.7208 86.489C94.7208 86.237 94.6518 86.03 94.5138 85.868C94.3818 85.7 94.2048 85.559 93.9828 85.445C93.7608 85.325 93.5058 85.223 93.2178 85.139C92.9358 85.049 92.6448 84.956 92.3448 84.86C92.0508 84.764 91.7598 84.656 91.4718 84.536C91.1898 84.41 90.9378 84.254 90.7158 84.068C90.4938 83.882 90.3138 83.654 90.1758 83.384C90.0438 83.108 89.9778 82.775 89.9778 82.385C89.9778 82.037 90.0498 81.704 90.1938 81.386C90.3378 81.062 90.5478 80.78 90.8238 80.54C91.0998 80.294 91.4388 80.099 91.8408 79.955C92.2428 79.811 92.7018 79.739 93.2178 79.739C93.8178 79.739 94.3548 79.835 94.8288 80.027C95.3088 80.213 95.7228 80.471 96.0708 80.801L95.7108 81.386ZM105.871 82.646C105.235 82.982 104.755 83.39 104.431 83.87C104.113 84.35 103.954 84.872 103.954 85.436C103.954 85.826 104.026 86.171 104.17 86.471C104.314 86.765 104.503 87.014 104.737 87.218C104.971 87.422 105.238 87.578 105.538 87.686C105.838 87.788 106.144 87.839 106.456 87.839C107.128 87.839 107.731 87.716 108.265 87.47C108.805 87.224 109.276 86.894 109.678 86.48L105.871 82.646ZM114.187 89H112.63C112.456 89 112.315 88.979 112.207 88.937C112.099 88.895 111.982 88.808 111.856 88.676L110.551 87.362C109.987 87.908 109.336 88.343 108.598 88.667C107.866 88.985 107.059 89.144 106.177 89.144C105.697 89.144 105.226 89.063 104.764 88.901C104.308 88.739 103.897 88.505 103.531 88.199C103.165 87.887 102.871 87.509 102.649 87.065C102.427 86.621 102.316 86.12 102.316 85.562C102.316 85.142 102.385 84.746 102.523 84.374C102.667 83.996 102.865 83.648 103.117 83.33C103.369 83.012 103.666 82.727 104.008 82.475C104.35 82.223 104.725 82.007 105.133 81.827C104.767 81.359 104.497 80.909 104.323 80.477C104.149 80.039 104.062 79.586 104.062 79.118C104.062 78.68 104.14 78.269 104.296 77.885C104.458 77.501 104.689 77.168 104.989 76.886C105.289 76.598 105.652 76.373 106.078 76.211C106.51 76.043 106.993 75.959 107.527 75.959C108.001 75.959 108.433 76.037 108.823 76.193C109.213 76.343 109.549 76.544 109.831 76.796C110.113 77.048 110.335 77.342 110.497 77.678C110.665 78.008 110.761 78.353 110.785 78.713L109.786 78.911C109.588 78.959 109.441 78.866 109.345 78.632C109.303 78.476 109.234 78.314 109.138 78.146C109.048 77.978 108.928 77.825 108.778 77.687C108.634 77.549 108.457 77.435 108.247 77.345C108.043 77.255 107.803 77.21 107.527 77.21C107.227 77.21 106.954 77.258 106.708 77.354C106.468 77.45 106.261 77.585 106.087 77.759C105.919 77.927 105.79 78.128 105.7 78.362C105.61 78.59 105.565 78.839 105.565 79.109C105.565 79.319 105.589 79.52 105.637 79.712C105.685 79.904 105.76 80.099 105.862 80.297C105.97 80.495 106.105 80.696 106.267 80.9C106.429 81.104 106.624 81.32 106.852 81.548L110.56 85.319C110.788 84.911 110.971 84.488 111.109 84.05C111.247 83.606 111.337 83.165 111.379 82.727C111.391 82.613 111.427 82.523 111.487 82.457C111.547 82.391 111.631 82.358 111.739 82.358H112.72C112.714 83.048 112.606 83.726 112.396 84.392C112.186 85.052 111.883 85.673 111.487 86.255L114.187 89ZM129.645 86.336C129.741 86.336 129.825 86.375 129.897 86.453L130.59 87.2C130.062 87.812 129.42 88.289 128.664 88.631C127.914 88.973 127.005 89.144 125.937 89.144C125.013 89.144 124.173 88.985 123.417 88.667C122.661 88.343 122.016 87.893 121.482 87.317C120.948 86.735 120.534 86.039 120.24 85.229C119.946 84.419 119.799 83.528 119.799 82.556C119.799 81.584 119.952 80.693 120.258 79.883C120.564 79.073 120.993 78.377 121.545 77.795C122.103 77.213 122.769 76.763 123.543 76.445C124.317 76.121 125.172 75.959 126.108 75.959C127.026 75.959 127.836 76.106 128.538 76.4C129.24 76.694 129.858 77.093 130.392 77.597L129.816 78.398C129.78 78.458 129.732 78.509 129.672 78.551C129.618 78.587 129.543 78.605 129.447 78.605C129.339 78.605 129.207 78.548 129.051 78.434C128.895 78.314 128.691 78.182 128.439 78.038C128.187 77.894 127.872 77.765 127.494 77.651C127.116 77.531 126.651 77.471 126.099 77.471C125.433 77.471 124.824 77.588 124.272 77.822C123.72 78.05 123.243 78.383 122.841 78.821C122.445 79.259 122.136 79.793 121.914 80.423C121.692 81.053 121.581 81.764 121.581 82.556C121.581 83.36 121.695 84.077 121.923 84.707C122.157 85.337 122.472 85.871 122.868 86.309C123.27 86.741 123.741 87.071 124.281 87.299C124.827 87.527 125.415 87.641 126.045 87.641C126.429 87.641 126.774 87.62 127.08 87.578C127.392 87.53 127.677 87.458 127.935 87.362C128.199 87.266 128.442 87.146 128.664 87.002C128.892 86.852 129.117 86.675 129.339 86.471C129.441 86.381 129.543 86.336 129.645 86.336ZM135.904 79.739C136.57 79.739 137.17 79.85 137.704 80.072C138.238 80.294 138.694 80.609 139.072 81.017C139.45 81.425 139.738 81.92 139.936 82.502C140.14 83.078 140.242 83.723 140.242 84.437C140.242 85.157 140.14 85.805 139.936 86.381C139.738 86.957 139.45 87.449 139.072 87.857C138.694 88.265 138.238 88.58 137.704 88.802C137.17 89.018 136.57 89.126 135.904 89.126C135.232 89.126 134.626 89.018 134.086 88.802C133.552 88.58 133.096 88.265 132.718 87.857C132.34 87.449 132.049 86.957 131.845 86.381C131.647 85.805 131.548 85.157 131.548 84.437C131.548 83.723 131.647 83.078 131.845 82.502C132.049 81.92 132.34 81.425 132.718 81.017C133.096 80.609 133.552 80.294 134.086 80.072C134.626 79.85 135.232 79.739 135.904 79.739ZM135.904 87.875C136.804 87.875 137.476 87.575 137.92 86.975C138.364 86.369 138.586 85.526 138.586 84.446C138.586 83.36 138.364 82.514 137.92 81.908C137.476 81.302 136.804 80.999 135.904 80.999C135.448 80.999 135.049 81.077 134.707 81.233C134.371 81.389 134.089 81.614 133.861 81.908C133.639 82.202 133.471 82.565 133.357 82.997C133.249 83.423 133.195 83.906 133.195 84.446C133.195 85.526 133.417 86.369 133.861 86.975C134.311 87.575 134.992 87.875 135.904 87.875ZM146.117 79.739C146.783 79.739 147.383 79.85 147.917 80.072C148.451 80.294 148.907 80.609 149.285 81.017C149.663 81.425 149.951 81.92 150.149 82.502C150.353 83.078 150.455 83.723 150.455 84.437C150.455 85.157 150.353 85.805 150.149 86.381C149.951 86.957 149.663 87.449 149.285 87.857C148.907 88.265 148.451 88.58 147.917 88.802C147.383 89.018 146.783 89.126 146.117 89.126C145.445 89.126 144.839 89.018 144.299 88.802C143.765 88.58 143.309 88.265 142.931 87.857C142.553 87.449 142.262 86.957 142.058 86.381C141.86 85.805 141.761 85.157 141.761 84.437C141.761 83.723 141.86 83.078 142.058 82.502C142.262 81.92 142.553 81.425 142.931 81.017C143.309 80.609 143.765 80.294 144.299 80.072C144.839 79.85 145.445 79.739 146.117 79.739ZM146.117 87.875C147.017 87.875 147.689 87.575 148.133 86.975C148.577 86.369 148.799 85.526 148.799 84.446C148.799 83.36 148.577 82.514 148.133 81.908C147.689 81.302 147.017 80.999 146.117 80.999C145.661 80.999 145.262 81.077 144.92 81.233C144.584 81.389 144.302 81.614 144.074 81.908C143.852 82.202 143.684 82.565 143.57 82.997C143.462 83.423 143.408 83.906 143.408 84.446C143.408 85.526 143.63 86.369 144.074 86.975C144.524 87.575 145.205 87.875 146.117 87.875ZM154.098 75.743V83.546H154.512C154.632 83.546 154.731 83.531 154.809 83.501C154.893 83.465 154.98 83.396 155.07 83.294L157.95 80.207C158.034 80.105 158.121 80.027 158.211 79.973C158.307 79.913 158.433 79.883 158.589 79.883H160.038L156.681 83.456C156.519 83.66 156.345 83.819 156.159 83.933C156.267 84.005 156.363 84.089 156.447 84.185C156.537 84.275 156.621 84.38 156.699 84.5L160.263 89H158.832C158.694 89 158.574 88.979 158.472 88.937C158.376 88.889 158.292 88.805 158.22 88.685L155.223 84.95C155.133 84.824 155.043 84.743 154.953 84.707C154.869 84.665 154.737 84.644 154.557 84.644H154.098V89H152.487V75.743H154.098ZM163.319 79.883V89H161.717V79.883H163.319ZM163.661 77.021C163.661 77.177 163.628 77.324 163.562 77.462C163.502 77.594 163.418 77.714 163.31 77.822C163.208 77.924 163.085 78.005 162.941 78.065C162.803 78.125 162.656 78.155 162.5 78.155C162.344 78.155 162.197 78.125 162.059 78.065C161.927 78.005 161.81 77.924 161.708 77.822C161.606 77.714 161.525 77.594 161.465 77.462C161.405 77.324 161.375 77.177 161.375 77.021C161.375 76.865 161.405 76.718 161.465 76.58C161.525 76.436 161.606 76.313 161.708 76.211C161.81 76.103 161.927 76.019 162.059 75.959C162.197 75.899 162.344 75.869 162.5 75.869C162.656 75.869 162.803 75.899 162.941 75.959C163.085 76.019 163.208 76.103 163.31 76.211C163.418 76.313 163.502 76.436 163.562 76.58C163.628 76.718 163.661 76.865 163.661 77.021ZM172.054 83.447C172.054 83.075 172 82.736 171.892 82.43C171.79 82.118 171.637 81.851 171.433 81.629C171.235 81.401 170.992 81.227 170.704 81.107C170.416 80.981 170.089 80.918 169.723 80.918C168.955 80.918 168.346 81.143 167.896 81.593C167.452 82.037 167.176 82.655 167.068 83.447H172.054ZM173.35 87.722C173.152 87.962 172.915 88.172 172.639 88.352C172.363 88.526 172.066 88.67 171.748 88.784C171.436 88.898 171.112 88.982 170.776 89.036C170.44 89.096 170.107 89.126 169.777 89.126C169.147 89.126 168.565 89.021 168.031 88.811C167.503 88.595 167.044 88.283 166.654 87.875C166.27 87.461 165.97 86.951 165.754 86.345C165.538 85.739 165.43 85.043 165.43 84.257C165.43 83.621 165.526 83.027 165.718 82.475C165.916 81.923 166.198 81.446 166.564 81.044C166.93 80.636 167.377 80.318 167.905 80.09C168.433 79.856 169.027 79.739 169.687 79.739C170.233 79.739 170.737 79.832 171.199 80.018C171.667 80.198 172.069 80.462 172.405 80.81C172.747 81.152 173.014 81.578 173.206 82.088C173.398 82.592 173.494 83.168 173.494 83.816C173.494 84.068 173.467 84.236 173.413 84.32C173.359 84.404 173.257 84.446 173.107 84.446H167.014C167.032 85.022 167.11 85.523 167.248 85.949C167.392 86.375 167.59 86.732 167.842 87.02C168.094 87.302 168.394 87.515 168.742 87.659C169.09 87.797 169.48 87.866 169.912 87.866C170.314 87.866 170.659 87.821 170.947 87.731C171.241 87.635 171.493 87.533 171.703 87.425C171.913 87.317 172.087 87.218 172.225 87.128C172.369 87.032 172.492 86.984 172.594 86.984C172.726 86.984 172.828 87.035 172.9 87.137L173.35 87.722ZM180.771 81.386C180.699 81.518 180.588 81.584 180.438 81.584C180.348 81.584 180.246 81.551 180.132 81.485C180.018 81.419 179.877 81.347 179.709 81.269C179.547 81.185 179.352 81.11 179.124 81.044C178.896 80.972 178.626 80.936 178.314 80.936C178.044 80.936 177.801 80.972 177.585 81.044C177.369 81.11 177.183 81.203 177.027 81.323C176.877 81.443 176.76 81.584 176.676 81.746C176.598 81.902 176.559 82.073 176.559 82.259C176.559 82.493 176.625 82.688 176.757 82.844C176.895 83 177.075 83.135 177.297 83.249C177.519 83.363 177.771 83.465 178.053 83.555C178.335 83.639 178.623 83.732 178.917 83.834C179.217 83.93 179.508 84.038 179.79 84.158C180.072 84.278 180.324 84.428 180.546 84.608C180.768 84.788 180.945 85.01 181.077 85.274C181.215 85.532 181.284 85.844 181.284 86.21C181.284 86.63 181.209 87.02 181.059 87.38C180.909 87.734 180.687 88.043 180.393 88.307C180.099 88.565 179.739 88.769 179.313 88.919C178.887 89.069 178.395 89.144 177.837 89.144C177.201 89.144 176.625 89.042 176.109 88.838C175.593 88.628 175.155 88.361 174.795 88.037L175.173 87.425C175.221 87.347 175.278 87.287 175.344 87.245C175.41 87.203 175.494 87.182 175.596 87.182C175.704 87.182 175.818 87.224 175.938 87.308C176.058 87.392 176.202 87.485 176.37 87.587C176.544 87.689 176.754 87.782 177 87.866C177.246 87.95 177.552 87.992 177.918 87.992C178.23 87.992 178.503 87.953 178.737 87.875C178.971 87.791 179.166 87.68 179.322 87.542C179.478 87.404 179.592 87.245 179.664 87.065C179.742 86.885 179.781 86.693 179.781 86.489C179.781 86.237 179.712 86.03 179.574 85.868C179.442 85.7 179.265 85.559 179.043 85.445C178.821 85.325 178.566 85.223 178.278 85.139C177.996 85.049 177.705 84.956 177.405 84.86C177.111 84.764 176.82 84.656 176.532 84.536C176.25 84.41 175.998 84.254 175.776 84.068C175.554 83.882 175.374 83.654 175.236 83.384C175.104 83.108 175.038 82.775 175.038 82.385C175.038 82.037 175.11 81.704 175.254 81.386C175.398 81.062 175.608 80.78 175.884 80.54C176.16 80.294 176.499 80.099 176.901 79.955C177.303 79.811 177.762 79.739 178.278 79.739C178.878 79.739 179.415 79.835 179.889 80.027C180.369 80.213 180.783 80.471 181.131 80.801L180.771 81.386Z" fill="white"/>
<path d="M141 24.0911C140.996 23.5931 140.87 23.174 140.68 22.7936C140.496 22.4388 140.249 22.1094 139.87 21.8542L139.872 21.8501L118.482 6.81373C117.025 3.09971 114.261 1.26863 112.434 1.26863C112.008 1.26863 111.529 1.37725 111.03 1.57579L109.695 0.637234L109.688 0.633127C108.981 0.157255 108.175 0.00497163 107.311 0C106.408 0.00172926 105.424 0.183626 104.39 0.518779C102.84 1.02351 101.181 1.87971 99.6058 3.07269C98.0331 4.26566 96.5467 5.7979 95.3824 7.67015C93.7755 10.2578 92.6827 12.8489 91.9901 15.2208C91.2976 17.5951 91.0015 19.7448 91 21.4943C91.0008 21.8015 91.0127 22.093 91.0312 22.377V40.1789C91.032 42.3253 92.6031 44.0634 94.5418 44.0641H137.067C138.969 44.0634 140.522 42.3895 140.577 40.2876L140.976 24.3439H140.972C140.981 24.2599 141 24.171 141 24.0911ZM116.399 11.4407C116.453 10.7482 116.747 10.2073 117.054 10.2329C117.361 10.2584 117.566 10.8414 117.511 11.5346C117.456 12.2262 117.163 12.7672 116.856 12.7408C116.549 12.7153 116.345 12.1332 116.399 11.4407ZM115.175 5.66107C115.48 5.61243 115.811 6.12948 115.915 6.81622C116.018 7.50371 115.855 8.099 115.55 8.14753C115.246 8.19606 114.915 7.67987 114.811 6.99314C114.708 6.30652 114.871 5.71046 115.175 5.66107ZM114.446 16.1847C114.501 15.4931 114.794 14.953 115.102 14.9786C115.408 15.0041 115.613 15.5862 115.558 16.2786C115.504 16.9711 115.211 17.512 114.903 17.4864C114.596 17.4609 114.391 16.878 114.446 16.1847ZM112.172 11.4416C112.227 10.7483 112.52 10.2083 112.828 10.2346C113.134 10.2602 113.339 10.843 113.284 11.5346C113.23 12.227 112.936 12.768 112.63 12.7416C112.322 12.716 112.118 12.134 112.172 11.4416ZM111.032 16.1913C111.137 16.878 110.974 17.4732 110.669 17.5218C110.364 17.5703 110.033 17.0541 109.93 16.3675C109.827 15.6807 109.989 15.0848 110.294 15.0362C110.599 14.9869 110.928 15.5047 111.032 16.1913ZM109.173 7.00557C109.233 6.31311 109.53 5.77466 109.837 5.8019C110.143 5.82989 110.344 6.41351 110.286 7.10598C110.227 7.79757 109.93 8.33602 109.623 8.30889C109.316 8.2809 109.115 7.69706 109.173 7.00557ZM138.293 40.216C138.274 40.9504 137.731 41.5349 137.067 41.5349H94.5418C93.8663 41.5332 93.3181 40.9272 93.3165 40.1789V35.8169H138.403L138.293 40.216ZM138.501 31.8921H93.3314C93.3263 31.8913 93.3218 31.8888 93.3166 31.8881V25.7937H138.654L138.501 31.8921ZM138.701 24.1076H93.3977L93.333 24.0268C93.3278 24.0195 93.3218 24.0022 93.3166 23.9931V22.325L93.3129 22.274C93.2951 22.0352 93.2854 21.775 93.2861 21.4943C93.2846 20.0626 93.5375 18.1418 94.1647 15.9987C94.7911 13.8539 95.7887 11.4811 97.2661 9.10252C98.565 7.00795 100.416 5.3391 102.291 4.2153C103.228 3.65296 104.168 3.22648 105.034 2.94494C105.899 2.66253 106.693 2.52829 107.311 2.52905C107.9 2.52494 108.314 2.66155 108.48 2.78022L108.843 3.0354C107.006 4.79395 105.404 7.87409 105.404 12.3391C105.404 18.3781 109.895 19.7868 112.434 19.7868C114.973 19.7868 119.464 18.3781 119.464 12.3391C119.464 11.6647 119.416 11.0324 119.348 10.4206L138.666 23.9997L138.703 24.0655L138.707 24.0812L138.701 24.1076ZM108.311 12.8297C108.008 12.8791 107.677 12.3612 107.573 11.6754C107.469 10.988 107.633 10.3928 107.937 10.3441C108.241 10.2947 108.572 10.8117 108.676 11.4984C108.779 12.1858 108.616 12.7812 108.311 12.8297Z" fill="white"/>
</svg>
